<?xml version="1.0"?>
<svg xmlns="http://www.w3.org/2000/svg" xmlns:xlink="http://www.w3.org/1999/xlink" version="1.1" id="Layer_1" x="0px" y="0px" viewBox="0 0 496 496" style="enable-background:new 0 0 496 496;" xml:space="preserve" width="512px" height="512px" class=""><g><g>
	<g>
		<g>
			<path d="M240,272c0-13.232-10.768-24-24-24h-80c-13.232,0-24,10.768-24,24v80c0,13.232,10.768,24,24,24h80     c13.232,0,24-10.768,24-24V272z M224,352c0,4.416-3.584,8-8,8h-80c-4.416,0-8-3.584-8-8v-80c0-4.416,3.584-8,8-8h80     c4.416,0,8,3.584,8,8V352z" data-original="#000000" class="active-path" data-old_color="#000000" fill="#FFFFFF"/>
			<rect x="222.184" y="407.945" transform="matrix(-0.669 -0.7433 0.7433 -0.669 151.4772 899.351)" width="107.635" height="16" data-original="#000000" class="active-path" data-old_color="#000000" fill="#FFFFFF"/>
			
				<rect x="67.977" y="362.182" transform="matrix(-0.7432 -0.669 0.669 -0.7432 -145.8684 776.008)" width="15.999" height="107.627" data-original="#000000" class="active-path" data-old_color="#000000" fill="#FFFFFF"/>
			
				<rect x="225.453" y="208.024" transform="matrix(-0.6585 0.7526 -0.7526 -0.6585 607.0101 156.6001)" width="85.041" height="16" data-original="#000000" class="active-path" data-old_color="#000000" fill="#FFFFFF"/>
			<rect x="22.188" y="199.997" transform="matrix(0.669 0.7433 -0.7433 0.669 179.7589 12.3577)" width="107.635" height="16" data-original="#000000" class="active-path" data-old_color="#000000" fill="#FFFFFF"/>
			<path d="M472,0H371.12c-14.736,0-28.224,8.056-35.224,21.032l-44.648,82.92l-15.928-7.24l-6.624,14.56l8.744,3.976l-8.84,17.68     l-7.96-3.616L211.312,80H83.752H72H40C17.944,80,0,97.944,0,120v336c0,22.056,17.944,40,40,40h272c22.056,0,40-17.944,40-40     V170.848l-13.424-6.104l8.84-17.68l9.272,4.216l6.624-14.56l-15.928-7.24l29.84-71.632C379.72,51.864,385.512,48,392,48h80V0z      M292,121.88l40.832,18.56l-8.84,17.68l-40.832-18.56L292,121.88z M204.688,96l32,32H123.752L97.088,96H204.688z M336,456     c0,13.232-10.768,24-24,24H40c-13.232,0-24-10.768-24-24V120c0-13.232,10.768-24,24-24h32h4.248l40,48h138.016L336,181.152V456z      M392,32c-12.96,0-24.552,7.728-29.536,19.688l-29.648,71.16l-26.968-12.256l44.136-81.968C354.176,20.832,362.272,16,371.12,16     H392V32z M424,32h-16V16h16V32z M456,32h-16V16h16V32z" data-original="#000000" class="active-path" data-old_color="#000000" fill="#FFFFFF"/>
			<rect x="248" y="448" width="16" height="16" data-original="#000000" class="active-path" data-old_color="#000000" fill="#FFFFFF"/>
			<rect x="168" y="448" width="64" height="16" data-original="#000000" class="active-path" data-old_color="#000000" fill="#FFFFFF"/>
			<path d="M489.6,116.8L464,82.664L438.392,116.8c-4.12,5.512-6.392,12.328-6.392,19.2c0,17.648,14.352,32,32,32s32-14.352,32-32     C496,129.128,493.728,122.312,489.6,116.8z M464,152c-8.824,0-16-7.176-16-16c0-3.44,1.136-6.848,3.192-9.6L464,109.336     l12.8,17.064c2.064,2.752,3.2,6.16,3.2,9.6C480,144.824,472.824,152,464,152z" data-original="#000000" class="active-path" data-old_color="#000000" fill="#FFFFFF"/>
			<path d="M432,186.664L406.392,220.8c-4.12,5.512-6.392,12.328-6.392,19.2c0,17.648,14.352,32,32,32s32-14.352,32-32     c0-6.872-2.272-13.688-6.4-19.2L432,186.664z M432,256c-8.824,0-16-7.176-16-16c0-3.44,1.136-6.848,3.192-9.6L432,213.336     l12.8,17.064c2.064,2.752,3.2,6.16,3.2,9.6C448,248.824,440.824,256,432,256z" data-original="#000000" class="active-path" data-old_color="#000000" fill="#FFFFFF"/>
		</g>
	</g>
</g></g> </svg>
